<?xml version="1.0" encoding="utf-8"?><!-- Uploaded to: SVG Repo, www.svgrepo.com, Generator: SVG Repo Mixer Tools -->
<svg width="800px" height="800px" viewBox="0 0 24 24" fill="none" xmlns="http://www.w3.org/2000/svg">
<path fill-rule="evenodd" clip-rule="evenodd" d="M11.5 6C11.5 7.20948 10.6411 8.21836 9.5 8.44999V9.52746C10.6153 9.65075 11.6077 10.1816 12.3251 10.9678L15.9142 7.37869C15.6524 6.98348 15.5 6.50954 15.5 6C15.5 4.61929 16.6193 3.5 18 3.5C19.3807 3.5 20.5 4.61929 20.5 6C20.5 7.38071 19.3807 8.5 18 8.5C17.4905 8.5 17.0165 8.34756 16.6213 8.0858L12.9195 11.7876C13.2891 12.4409 13.5 13.1958 13.5 14C13.5 14.8006 13.2909 15.5523 12.9244 16.2036L14.1942 17.2711C14.6493 16.7959 15.2901 16.5 16 16.5C17.3807 16.5 18.5 17.6193 18.5 19C18.5 20.3807 17.3807 21.5 16 21.5C14.6193 21.5 13.5 20.3807 13.5 19C13.5 18.6925 13.5555 18.398 13.657 18.126L12.3385 17.0174C11.515 17.9279 10.3243 18.5 9 18.5C6.51472 18.5 4.5 16.4853 4.5 14C4.5 11.6837 6.25002 9.77619 8.5 9.52746V8.44999C7.35888 8.21836 6.5 7.20948 6.5 6C6.5 4.61929 7.61929 3.5 9 3.5C10.3807 3.5 11.5 4.61929 11.5 6ZM7.5 6C7.5 6.82843 8.17157 7.5 9 7.5C9.82843 7.5 10.5 6.82843 10.5 6C10.5 5.17157 9.82843 4.5 9 4.5C8.17157 4.5 7.5 5.17157 7.5 6ZM14.6587 18.3313L14.6547 18.3357C14.5557 18.5359 14.5 18.7615 14.5 19C14.5 19.8284 15.1716 20.5 16 20.5C16.8284 20.5 17.5 19.8284 17.5 19C17.5 18.1716 16.8284 17.5 16 17.5C15.484 17.5 15.0289 17.7605 14.759 18.1572C14.7396 18.2158 14.709 18.2717 14.6669 18.3218C14.6642 18.325 14.6615 18.3281 14.6587 18.3313ZM18 7.5C17.1716 7.5 16.5 6.82843 16.5 6C16.5 5.17157 17.1716 4.5 18 4.5C18.8284 4.5 19.5 5.17157 19.5 6C19.5 6.82843 18.8284 7.5 18 7.5ZM9 17.5C7.067 17.5 5.5 15.933 5.5 14C5.5 12.067 7.067 10.5 9 10.5C10.933 10.5 12.5 12.067 12.5 14C12.5 15.933 10.933 17.5 9 17.5Z" fill="#47495F"/>
</svg>