<?xml version="1.0" encoding="utf-8"?><!-- Uploaded to: SVG Repo, www.svgrepo.com, Generator: SVG Repo Mixer Tools -->
<svg width="800px" height="800px" viewBox="0 0 24 24" fill="none" xmlns="http://www.w3.org/2000/svg">
<path fill-rule="evenodd" clip-rule="evenodd" d="M7.5 9C7.5 8.17157 8.17157 7.5 9 7.5H15C15.8284 7.5 16.5 8.17157 16.5 9V15C16.5 15.8284 15.8284 16.5 15 16.5H9C8.17157 16.5 7.5 15.8284 7.5 15V9ZM9 8.5C8.72386 8.5 8.5 8.72386 8.5 9V15C8.5 15.2761 8.72386 15.5 9 15.5H15C15.2761 15.5 15.5 15.2761 15.5 15V9C15.5 8.72386 15.2761 8.5 15 8.5H9Z" fill="#47495F"/>
<path fill-rule="evenodd" clip-rule="evenodd" d="M10.5 3C10.7761 3 11 3.22386 11 3.5V6.5C11 6.77614 10.7761 7 10.5 7C10.2239 7 10 6.77614 10 6.5V3.5C10 3.22386 10.2239 3 10.5 3Z" fill="#47495F"/>
<path fill-rule="evenodd" clip-rule="evenodd" d="M13.5 3C13.7761 3 14 3.22386 14 3.5V6.5C14 6.77614 13.7761 7 13.5 7C13.2239 7 13 6.77614 13 6.5V3.5C13 3.22386 13.2239 3 13.5 3Z" fill="#47495F"/>
<path fill-rule="evenodd" clip-rule="evenodd" d="M3 13.5C3 13.2239 3.22386 13 3.5 13H6.5C6.77614 13 7 13.2239 7 13.5C7 13.7761 6.77614 14 6.5 14H3.5C3.22386 14 3 13.7761 3 13.5Z" fill="#47495F"/>
<path fill-rule="evenodd" clip-rule="evenodd" d="M17 13.5C17 13.2239 17.2239 13 17.5 13H20.5C20.7761 13 21 13.2239 21 13.5C21 13.7761 20.7761 14 20.5 14H17.5C17.2239 14 17 13.7761 17 13.5Z" fill="#47495F"/>
<path fill-rule="evenodd" clip-rule="evenodd" d="M3 10.5C3 10.2239 3.22386 10 3.5 10H6.5C6.77614 10 7 10.2239 7 10.5C7 10.7761 6.77614 11 6.5 11H3.5C3.22386 11 3 10.7761 3 10.5Z" fill="#47495F"/>
<path fill-rule="evenodd" clip-rule="evenodd" d="M17 10.5C17 10.2239 17.2239 10 17.5 10H20.5C20.7761 10 21 10.2239 21 10.5C21 10.7761 20.7761 11 20.5 11H17.5C17.2239 11 17 10.7761 17 10.5Z" fill="#47495F"/>
<path fill-rule="evenodd" clip-rule="evenodd" d="M10.5 17C10.7761 17 11 17.2239 11 17.5V20.5C11 20.7761 10.7761 21 10.5 21C10.2239 21 10 20.7761 10 20.5V17.5C10 17.2239 10.2239 17 10.5 17Z" fill="#47495F"/>
<path fill-rule="evenodd" clip-rule="evenodd" d="M13.5 17C13.7761 17 14 17.2239 14 17.5V20.5C14 20.7761 13.7761 21 13.5 21C13.2239 21 13 20.7761 13 20.5V17.5C13 17.2239 13.2239 17 13.5 17Z" fill="#47495F"/>
</svg>